<svg width="40" height="40" viewBox="0 0 40 40" fill="none" xmlns="http://www.w3.org/2000/svg">
<path d="M6.66671 6.66669C5.78265 6.66669 4.93481 7.01788 4.30968 7.643C3.68456 8.26812 3.33337 9.11597 3.33337 10V16.6667C4.21743 16.6667 5.06528 17.0179 5.6904 17.643C6.31552 18.2681 6.66671 19.116 6.66671 20C6.66671 20.8841 6.31552 21.7319 5.6904 22.357C5.06528 22.9822 4.21743 23.3334 3.33337 23.3334V30C3.33337 30.8841 3.68456 31.7319 4.30968 32.357C4.93481 32.9822 5.78265 33.3334 6.66671 33.3334H33.3334C34.2174 33.3334 35.0653 32.9822 35.6904 32.357C36.3155 31.7319 36.6667 30.8841 36.6667 30V23.3334C35.7826 23.3334 34.9348 22.9822 34.3097 22.357C33.6846 21.7319 33.3334 20.8841 33.3334 20C33.3334 19.116 33.6846 18.2681 34.3097 17.643C34.9348 17.0179 35.7826 16.6667 36.6667 16.6667V10C36.6667 9.11597 36.3155 8.26812 35.6904 7.643C35.0653 7.01788 34.2174 6.66669 33.3334 6.66669H6.66671ZM25.8334 11.6667L28.3334 14.1667L14.1667 28.3334L11.6667 25.8334L25.8334 11.6667ZM14.6834 11.7334C16.3167 11.7334 17.6334 13.05 17.6334 14.6834C17.6334 15.4657 17.3226 16.2161 16.7693 16.7693C16.2161 17.3226 15.4658 17.6334 14.6834 17.6334C13.05 17.6334 11.7334 16.3167 11.7334 14.6834C11.7334 13.901 12.0442 13.1506 12.5974 12.5974C13.1506 12.0442 13.901 11.7334 14.6834 11.7334ZM25.3167 22.3667C26.95 22.3667 28.2667 23.6834 28.2667 25.3167C28.2667 26.0991 27.9559 26.8494 27.4027 27.4027C26.8494 27.9559 26.0991 28.2667 25.3167 28.2667C23.6834 28.2667 22.3667 26.95 22.3667 25.3167C22.3667 24.5343 22.6775 23.784 23.2307 23.2307C23.784 22.6775 24.5343 22.3667 25.3167 22.3667Z" fill="#776BF5"/>
</svg>
