<svg width="52" height="52" viewBox="0 0 52 52" fill="none" xmlns="http://www.w3.org/2000/svg">
<path d="M16.9 4.33331H35.1C42.0334 4.33331 47.6667 9.96665 47.6667 16.9V35.1C47.6667 38.4329 46.3427 41.6292 43.986 43.986C41.6293 46.3427 38.4329 47.6666 35.1 47.6666H16.9C9.96671 47.6666 4.33337 42.0333 4.33337 35.1V16.9C4.33337 13.5671 5.65736 10.3707 8.01407 8.014C10.3708 5.6573 13.5672 4.33331 16.9 4.33331ZM16.4667 8.66665C14.398 8.66665 12.4141 9.48843 10.9513 10.9512C9.48849 12.414 8.66671 14.398 8.66671 16.4666V35.5333C8.66671 39.845 12.155 43.3333 16.4667 43.3333H35.5334C37.6021 43.3333 39.586 42.5115 41.0488 41.0487C42.5116 39.586 43.3334 37.602 43.3334 35.5333V16.4666C43.3334 12.155 39.845 8.66665 35.5334 8.66665H16.4667ZM37.375 11.9166C38.0933 11.9166 38.7822 12.202 39.2901 12.7099C39.798 13.2178 40.0834 13.9067 40.0834 14.625C40.0834 15.3433 39.798 16.0321 39.2901 16.5401C38.7822 17.048 38.0933 17.3333 37.375 17.3333C36.6567 17.3333 35.9679 17.048 35.46 16.5401C34.952 16.0321 34.6667 15.3433 34.6667 14.625C34.6667 13.9067 34.952 13.2178 35.46 12.7099C35.9679 12.202 36.6567 11.9166 37.375 11.9166ZM26 15.1666C28.8732 15.1666 31.6287 16.308 33.6604 18.3397C35.692 20.3713 36.8334 23.1268 36.8334 26C36.8334 28.8732 35.692 31.6287 33.6604 33.6603C31.6287 35.6919 28.8732 36.8333 26 36.8333C23.1269 36.8333 20.3714 35.6919 18.3397 33.6603C16.3081 31.6287 15.1667 28.8732 15.1667 26C15.1667 23.1268 16.3081 20.3713 18.3397 18.3397C20.3714 16.308 23.1269 15.1666 26 15.1666ZM26 19.5C24.2761 19.5 22.6228 20.1848 21.4038 21.4038C20.1849 22.6228 19.5 24.2761 19.5 26C19.5 27.7239 20.1849 29.3772 21.4038 30.5962C22.6228 31.8152 24.2761 32.5 26 32.5C27.7239 32.5 29.3772 31.8152 30.5962 30.5962C31.8152 29.3772 32.5 27.7239 32.5 26C32.5 24.2761 31.8152 22.6228 30.5962 21.4038C29.3772 20.1848 27.7239 19.5 26 19.5Z" fill="#CCCCCC"/>
</svg>
