<svg width="52" height="52" viewBox="0 0 52 52" fill="none" xmlns="http://www.w3.org/2000/svg">
<g clip-path="url(#clip0_94_955)">
<path d="M26 6.5C38.5645 6.5 48.75 14.4387 48.75 24.2342C48.75 34.0275 38.5645 41.9662 26 41.9662C24.7489 41.9668 23.4991 41.8872 22.2582 41.7278L12.7075 47.9743C11.622 48.5485 11.2385 48.4857 11.6848 47.0795L13.6175 39.1105C7.3775 35.9472 3.25 30.4655 3.25 24.2342C3.25 14.4408 13.4355 6.5 26 6.5ZM38.7985 23.9633L41.9835 20.878C42.1673 20.6871 42.2698 20.4324 42.2695 20.1674C42.2692 19.9025 42.166 19.648 41.9818 19.4576C41.7975 19.2671 41.5466 19.1557 41.2818 19.1466C41.017 19.1375 40.759 19.2316 40.5622 19.409L36.3848 23.452V20.111C36.3848 19.8398 36.2771 19.5797 36.0853 19.3879C35.8935 19.1961 35.6334 19.0883 35.3622 19.0883C35.0909 19.0883 34.8308 19.1961 34.639 19.3879C34.4472 19.5797 34.3395 19.8398 34.3395 20.111V25.6512C34.3012 25.8092 34.3012 25.9741 34.3395 26.1322V29.25C34.3395 29.5212 34.4472 29.7813 34.639 29.9731C34.8308 30.1649 35.0909 30.2727 35.3622 30.2727C35.6334 30.2727 35.8935 30.1649 36.0853 29.9731C36.2771 29.7813 36.3848 29.5212 36.3848 29.25V26.2968L37.31 25.402L40.404 29.8068C40.4813 29.9168 40.5794 30.0105 40.6929 30.0825C40.8063 30.1546 40.9328 30.2035 41.0652 30.2267C41.1976 30.2498 41.3333 30.2467 41.4644 30.2174C41.5956 30.1881 41.7197 30.1333 41.8297 30.056C41.9396 29.9788 42.0333 29.8806 42.1054 29.7671C42.1774 29.6537 42.2264 29.5272 42.2495 29.3948C42.2727 29.2624 42.2695 29.1267 42.2402 28.9956C42.2109 28.8644 42.1561 28.7403 42.0788 28.6303L38.7985 23.9612V23.9633ZM32.3895 28.132H29.2262V20.1435C29.2141 19.8807 29.1011 19.6327 28.9109 19.451C28.7206 19.2693 28.4677 19.1679 28.2046 19.1679C27.9415 19.1679 27.6885 19.2693 27.4983 19.451C27.308 19.6327 27.1951 19.8807 27.183 20.1435V29.1547C27.183 29.718 27.638 30.1773 28.2035 30.1773H32.3895C32.6607 30.1773 32.9208 30.0696 33.1126 29.8778C33.3044 29.686 33.4122 29.4259 33.4122 29.1547C33.4122 28.8834 33.3044 28.6233 33.1126 28.4315C32.9208 28.2397 32.6607 28.132 32.3895 28.132ZM19.6993 25.766L21.2073 22.0675L22.5897 25.766H19.6993ZM25.1658 26.8233L25.1702 26.7887C25.1697 26.531 25.0713 26.2832 24.895 26.0953L22.6287 20.0287C22.5337 19.7396 22.3527 19.4863 22.1099 19.3028C21.8672 19.1193 21.5742 19.0142 21.2702 19.0017C20.9639 19.0003 20.6645 19.0923 20.4117 19.2653C20.159 19.4383 19.9649 19.6842 19.8553 19.9702L16.2565 28.7993C16.2057 28.9237 16.1799 29.0568 16.1806 29.1911C16.1812 29.3254 16.2083 29.4583 16.2603 29.5821C16.3124 29.706 16.3882 29.8183 16.4837 29.9128C16.5791 30.0073 16.6922 30.0821 16.8166 30.1329C16.9409 30.1837 17.074 30.2095 17.2084 30.2088C17.3427 30.2082 17.4755 30.1811 17.5994 30.1291C17.7232 30.0771 17.8356 30.0012 17.9301 29.9057C18.0246 29.8103 18.0994 29.6972 18.1502 29.5728L18.8652 27.8113H23.3502L23.998 29.5447C24.042 29.6742 24.1116 29.7936 24.2027 29.8958C24.2937 29.998 24.4043 30.0809 24.528 30.1395C24.6516 30.1981 24.7858 30.2314 24.9225 30.2372C25.0592 30.2431 25.1957 30.2215 25.3239 30.1736C25.4521 30.1257 25.5694 30.0526 25.6688 29.9586C25.7683 29.8646 25.8478 29.7516 25.9028 29.6263C25.9578 29.5009 25.987 29.3659 25.9888 29.229C25.9906 29.0922 25.965 28.9564 25.9133 28.8297L25.1658 26.8233ZM17.9682 20.1543C17.9682 19.8835 17.8607 19.6237 17.6694 19.432C17.4781 19.2402 17.2185 19.1322 16.9477 19.1317H9.91683C9.64561 19.1317 9.38549 19.2394 9.1937 19.4312C9.00191 19.623 8.89417 19.8831 8.89417 20.1543C8.89417 20.4256 9.00191 20.6857 9.1937 20.8775C9.38549 21.0693 9.64561 21.177 9.91683 21.177H12.4302V29.2717C12.4302 29.5429 12.5379 29.803 12.7297 29.9948C12.9215 30.1866 13.1816 30.2943 13.4528 30.2943C13.7241 30.2943 13.9842 30.1866 14.176 29.9948C14.3678 29.803 14.4755 29.5429 14.4755 29.2717V21.177H16.9455C17.2167 21.177 17.4768 21.0693 17.6686 20.8775C17.8604 20.6857 17.9682 20.4256 17.9682 20.1543Z" fill="#CCCCCC"/>
</g>
<defs>
<clipPath id="clip0_94_955">
<rect width="52" height="52" fill="white"/>
</clipPath>
</defs>
</svg>
