<svg width="52" height="52" viewBox="0 0 52 52" fill="none" xmlns="http://www.w3.org/2000/svg">
<path d="M16 27C16.2652 27 16.5196 26.8946 16.7071 26.7071C16.8946 26.5196 17 26.2652 17 26C17 25.7348 16.8946 25.4804 16.7071 25.2929C16.5196 25.1054 16.2652 25 16 25C15.7348 25 15.4804 25.1054 15.2929 25.2929C15.1054 25.4804 15 25.7348 15 26C15 26.2652 15.1054 26.5196 15.2929 26.7071C15.4804 26.8946 15.7348 27 16 27ZM26 27C26.2652 27 26.5196 26.8946 26.7071 26.7071C26.8946 26.5196 27 26.2652 27 26C27 25.7348 26.8946 25.4804 26.7071 25.2929C26.5196 25.1054 26.2652 25 26 25C25.7348 25 25.4804 25.1054 25.2929 25.2929C25.1054 25.4804 25 25.7348 25 26C25 26.2652 25.1054 26.5196 25.2929 26.7071C25.4804 26.8946 25.7348 27 26 27ZM36 27C36.2652 27 36.5196 26.8946 36.7071 26.7071C36.8946 26.5196 37 26.2652 37 26C37 25.7348 36.8946 25.4804 36.7071 25.2929C36.5196 25.1054 36.2652 25 36 25C35.7348 25 35.4804 25.1054 35.2929 25.2929C35.1054 25.4804 35 25.7348 35 26C35 26.2652 35.1054 26.5196 35.2929 26.7071C35.4804 26.8946 35.7348 27 36 27Z" fill="#CCCCCC" stroke="#CCCCCC" stroke-width="3" stroke-linecap="round" stroke-linejoin="round"/>
<path d="M26 46C37.046 46 46 37.046 46 26C46 14.954 37.046 6 26 6C14.954 6 6 14.954 6 26C6 37.046 14.954 46 26 46Z" stroke="#CCCCCC" stroke-width="3" stroke-linecap="round" stroke-linejoin="round"/>
</svg>
