<svg width="40" height="40" viewBox="0 0 40 40" fill="none" xmlns="http://www.w3.org/2000/svg">
<path d="M21.3 19.95C20.45 14.2333 18.1 3.33331 12.55 3.33331C7.00005 3.33331 4.66672 14.2333 3.80005 19.95C3.45005 22.3666 3.33338 24.8166 3.60005 27.25C4.16672 32.3166 5.91672 34.7333 7.11672 35.8333C7.73338 36.3833 8.51672 36.6666 9.33338 36.6666H15.7834C16.6 36.6666 17.3834 36.3833 18 35.8333C19.1667 34.7333 20.9167 32.3166 21.5167 27.25C21.8 24.8166 21.6667 22.3666 21.3 19.95ZM12.55 6.66665C13.15 6.44998 14.3167 7.88331 15.45 10.5166L7.63338 17.2166C9.01672 10.4333 11.5667 6.31665 12.55 6.66665ZM16.25 21.6666H8.85005C8.51909 21.6585 8.19882 21.5478 7.93338 21.35L16.6667 13.8833C17.15 15.5833 17.6 17.5 17.9167 19.7166C18.0667 20.7333 17.2834 21.6666 16.25 21.6666ZM36.3 19.95C35.4501 14.2333 33.1 3.33331 27.5501 3.33331C25.0667 3.33331 23.2334 5.53331 21.8834 8.46665C22.5 10.0666 23.0667 11.9 23.55 13.95L32.1834 21.35C31.9167 21.5333 31.6167 21.6666 31.25 21.6666H24.8667C25.0667 23.7833 25.05 25.75 24.8167 27.65C24.3667 31.45 23.3334 34.0833 22.2 35.8833C22.8 36.4 23.55 36.6666 24.3334 36.6666H30.7834C31.6 36.6666 32.3834 36.3833 33 35.8333C34.1667 34.7333 35.9167 32.3166 36.5167 27.25C36.8 24.8166 36.6667 22.3666 36.3 19.95ZM24.6667 10.5166C25.8334 7.88331 26.9667 6.44998 27.5501 6.66665C28.5501 6.31665 31.0834 10.4333 32.5 17.2166L24.6667 10.5166Z" fill="#FFD600"/>
</svg>
