<svg width="40" height="40" viewBox="0 0 40 40" fill="none" xmlns="http://www.w3.org/2000/svg">
<path d="M6.66671 33.3334C5.75004 33.3334 4.96504 33.0067 4.31171 32.3534C3.65838 31.7 3.33227 30.9156 3.33338 30V10C3.33338 9.08336 3.66004 8.29836 4.31338 7.64502C4.96671 6.99169 5.75115 6.66558 6.66671 6.66669H33.3334C34.25 6.66669 35.035 6.99336 35.6884 7.64669C36.3417 8.30002 36.6678 9.08447 36.6667 10V30C36.6667 30.9167 36.34 31.7017 35.6867 32.355C35.0334 33.0084 34.2489 33.3345 33.3334 33.3334H6.66671ZM6.66671 13.3334H33.3334V10H6.66671V13.3334ZM18.25 27.5834L27.6667 18.1667L25.25 15.75L18.25 22.75L14.75 19.25L12.3334 21.6667L18.25 27.5834Z" fill="#CFCBFF"/>
</svg>
