<svg fill="none" height="61" viewBox="0 0 61 61" width="61" xmlns="http://www.w3.org/2000/svg">
  <defs>
    <clipPath id="clip0_2329_1791">
      <rect fill="white" height="61" width="61" />
    </clipPath>
  </defs>
  <g clip-path="url(#clip0_2329_1791)">
    <g mask="url(#mask0_2329_1791)">
      <path clip-rule="evenodd" d="M30.5 7.60768H34.7923V14.0461H30.5C21.7069 14.0461 14.2372 19.7119 11.5423 27.592V26.5654C11.5423 16.0953 20.03 7.60768 30.5 7.60768ZM11.5423 34.0769V53.0346H15.8346C26.3046 53.0346 34.7923 44.5469 34.7923 34.0769V15.1192H30.5C20.03 15.1192 11.5423 23.6069 11.5423 34.0769ZM35.8654 15.1192V34.0769C35.8654 42.8701 30.1995 50.3398 22.3196 53.0346H30.5C40.97 53.0346 49.4577 44.5469 49.4577 34.0769V15.1192H35.8654ZM15.8346 54.1077H11.5423H10.4692V53.0346V34.0769V26.5654C10.4692 15.5027 19.4373 6.53461 30.5 6.53461H34.7923H35.8654V7.60768V14.0461H49.4577H50.5308V15.1192V34.0769C50.5308 45.1396 41.5627 54.1077 30.5 54.1077H15.8346Z"
        fill="#CCCCCC"
        fill-opacity="0.8" fill-rule="evenodd" />
      <path
        d="M9.96924 54.1077V54.6077H10.4692H11.5423H15.8346H30.5C41.8389 54.6077 51.0308 45.4158 51.0308 34.0769V15.1192V14.0461V13.5461H50.5308H49.4577H36.3654V7.60768V6.53461V6.03461H35.8654H34.7923H30.5C19.1612 6.03461 9.96924 15.2266 9.96924 26.5654V34.0769V53.0346V54.1077ZM30.5 8.10768H34.2923V13.5461H30.5C22.4463 13.5461 15.4768 18.1831 12.1136 24.9319C12.9404 15.5031 20.8566 8.10768 30.5 8.10768ZM15.8346 52.5346H12.0423V34.0769C12.0423 23.883 20.3061 15.6192 30.5 15.6192H34.2923V34.0769C34.2923 44.2708 26.0285 52.5346 15.8346 52.5346ZM36.3654 34.0769V15.6192H48.9577V34.0769C48.9577 44.2708 40.6939 52.5346 30.5 52.5346H24.8352C31.6621 49.1994 36.3654 42.188 36.3654 34.0769Z"
        stroke="#CCCCCC" stroke-opacity="0.8" />
    </g>
    <mask style="mask-type:luminance" height="93" id="mask0_2329_1791" maskUnits="userSpaceOnUse"
      width="93" x="-16" y="-16">
      <path d="M77 -16H-16V77H77V-16Z" fill="white" />
    </mask>
  </g>
</svg>
